G04 #@! TF.GenerationSoftware,KiCad,Pcbnew,(5.1.5-rc2)*
G04 #@! TF.CreationDate,2020-01-23T18:41:27+08:00*
G04 #@! TF.ProjectId,Untitled,556e7469-746c-4656-942e-6b696361645f,rev?*
G04 #@! TF.SameCoordinates,Original*
G04 #@! TF.FileFunction,Copper,L2,Bot*
G04 #@! TF.FilePolarity,Positive*
%FSLAX46Y46*%
G04 Gerber Fmt 4.6, Leading zero omitted, Abs format (unit mm)*
G04 Created by KiCad (PCBNEW (5.1.5-rc2)) date 2020-01-23 18:41:27*
%MOMM*%
%LPD*%
G04 APERTURE LIST*
%ADD10O,1.700000X1.700000*%
%ADD11R,1.700000X1.700000*%
G04 APERTURE END LIST*
D10*
X185039000Y-61214000D03*
D11*
X185039000Y-58674000D03*
X185039000Y-138684000D03*
D10*
X185039000Y-141224000D03*
D11*
X185039000Y-147574000D03*
D10*
X185039000Y-150114000D03*
D11*
X185039000Y-67564000D03*
D10*
X185039000Y-70104000D03*
D11*
X185039000Y-85344000D03*
D10*
X185039000Y-87884000D03*
X185039000Y-96774000D03*
D11*
X185039000Y-94234000D03*
X185039000Y-76454000D03*
D10*
X185039000Y-78994000D03*
X185039000Y-105664000D03*
D11*
X185039000Y-103124000D03*
X185039000Y-112014000D03*
D10*
X185039000Y-114554000D03*
X185039000Y-123444000D03*
D11*
X185039000Y-120904000D03*
D10*
X185039000Y-132334000D03*
D11*
X185039000Y-129794000D03*
D10*
X169799000Y-61214000D03*
D11*
X169799000Y-58674000D03*
X169799000Y-138684000D03*
D10*
X169799000Y-141224000D03*
D11*
X169799000Y-147574000D03*
D10*
X169799000Y-150114000D03*
D11*
X169799000Y-67564000D03*
D10*
X169799000Y-70104000D03*
D11*
X169799000Y-85344000D03*
D10*
X169799000Y-87884000D03*
X169799000Y-96774000D03*
D11*
X169799000Y-94234000D03*
X169799000Y-76454000D03*
D10*
X169799000Y-78994000D03*
X169799000Y-105664000D03*
D11*
X169799000Y-103124000D03*
X169799000Y-112014000D03*
D10*
X169799000Y-114554000D03*
X169799000Y-123444000D03*
D11*
X169799000Y-120904000D03*
D10*
X169799000Y-132334000D03*
D11*
X169799000Y-129794000D03*
D10*
X154559000Y-61214000D03*
D11*
X154559000Y-58674000D03*
X154559000Y-138684000D03*
D10*
X154559000Y-141224000D03*
D11*
X154559000Y-147574000D03*
D10*
X154559000Y-150114000D03*
D11*
X154559000Y-67564000D03*
D10*
X154559000Y-70104000D03*
D11*
X154559000Y-85344000D03*
D10*
X154559000Y-87884000D03*
X154559000Y-96774000D03*
D11*
X154559000Y-94234000D03*
X154559000Y-76454000D03*
D10*
X154559000Y-78994000D03*
X154559000Y-105664000D03*
D11*
X154559000Y-103124000D03*
X154559000Y-112014000D03*
D10*
X154559000Y-114554000D03*
X154559000Y-123444000D03*
D11*
X154559000Y-120904000D03*
D10*
X154559000Y-132334000D03*
D11*
X154559000Y-129794000D03*
D10*
X139319000Y-61214000D03*
D11*
X139319000Y-58674000D03*
X139319000Y-138684000D03*
D10*
X139319000Y-141224000D03*
D11*
X139319000Y-147574000D03*
D10*
X139319000Y-150114000D03*
D11*
X139319000Y-67564000D03*
D10*
X139319000Y-70104000D03*
D11*
X139319000Y-85344000D03*
D10*
X139319000Y-87884000D03*
X139319000Y-96774000D03*
D11*
X139319000Y-94234000D03*
X139319000Y-76454000D03*
D10*
X139319000Y-78994000D03*
X139319000Y-105664000D03*
D11*
X139319000Y-103124000D03*
X139319000Y-112014000D03*
D10*
X139319000Y-114554000D03*
X139319000Y-123444000D03*
D11*
X139319000Y-120904000D03*
D10*
X139319000Y-132334000D03*
D11*
X139319000Y-129794000D03*
D10*
X124079000Y-61214000D03*
D11*
X124079000Y-58674000D03*
X124079000Y-138684000D03*
D10*
X124079000Y-141224000D03*
D11*
X124079000Y-147574000D03*
D10*
X124079000Y-150114000D03*
D11*
X124079000Y-67564000D03*
D10*
X124079000Y-70104000D03*
D11*
X124079000Y-85344000D03*
D10*
X124079000Y-87884000D03*
X124079000Y-96774000D03*
D11*
X124079000Y-94234000D03*
X124079000Y-76454000D03*
D10*
X124079000Y-78994000D03*
X124079000Y-105664000D03*
D11*
X124079000Y-103124000D03*
X124079000Y-112014000D03*
D10*
X124079000Y-114554000D03*
X124079000Y-123444000D03*
D11*
X124079000Y-120904000D03*
D10*
X124079000Y-132334000D03*
D11*
X124079000Y-129794000D03*
D10*
X108204000Y-141224000D03*
D11*
X108204000Y-138684000D03*
D10*
X108204000Y-150114000D03*
D11*
X108204000Y-147574000D03*
D10*
X108204000Y-114554000D03*
D11*
X108204000Y-112014000D03*
X108204000Y-120904000D03*
D10*
X108204000Y-123444000D03*
D11*
X108204000Y-129794000D03*
D10*
X108204000Y-132334000D03*
X108204000Y-87884000D03*
D11*
X108204000Y-85344000D03*
X108204000Y-94234000D03*
D10*
X108204000Y-96774000D03*
D11*
X108204000Y-103124000D03*
D10*
X108204000Y-105664000D03*
X108204000Y-78994000D03*
D11*
X108204000Y-76454000D03*
D10*
X108204000Y-70104000D03*
D11*
X108204000Y-67564000D03*
X108204000Y-58674000D03*
D10*
X108204000Y-61214000D03*
M02*
